<svg width="32" height="32" viewBox="0 0 32 32" fill="none" xmlns="http://www.w3.org/2000/svg">
<rect width="32" height="32" rx="10" fill="#FD8923"/>
<path d="M14 18C14.2833 18 14.521 17.904 14.713 17.712C14.905 17.52 15.0007 17.2827 15 17V14C15 13.7167 14.904 13.4793 14.712 13.288C14.52 13.0967 14.2827 13.0007 14 13C13.7173 12.9993 13.48 13.0953 13.288 13.288C13.096 13.4807 13 13.718 13 14V17C13 17.2833 13.096 17.521 13.288 17.713C13.48 17.905 13.7173 18.0007 14 18ZM9 16.5C8.23333 16.1167 7.625 15.5627 7.175 14.838C6.725 14.1133 6.5 13.3257 6.5 12.475C6.5 11.225 6.92933 10.1667 7.788 9.3C8.64667 8.43333 9.70067 8 10.95 8C11.15 8 11.3543 8.01667 11.563 8.05C11.7717 8.08333 11.9757 8.125 12.175 8.175C12.5917 7.49167 13.1333 6.95833 13.8 6.575C14.4667 6.19167 15.2 6 16 6C16.8 6 17.5333 6.19167 18.2 6.575C18.8667 6.95833 19.4083 7.49167 19.825 8.175C20.025 8.125 20.225 8.08333 20.425 8.05C20.625 8.01667 20.8333 8 21.05 8C22.3 8 23.3543 8.43333 24.213 9.3C25.0717 10.1667 25.5007 11.225 25.5 12.475C25.5 13.325 25.275 14.1127 24.825 14.838C24.375 15.5633 23.7667 16.1173 23 16.5V22H9V16.5ZM18 18C18.2833 18 18.521 17.904 18.713 17.712C18.905 17.52 19.0007 17.2827 19 17V14C19 13.7167 18.904 13.4793 18.712 13.288C18.52 13.0967 18.2827 13.0007 18 13C17.7173 12.9993 17.48 13.0953 17.288 13.288C17.096 13.4807 17 13.718 17 14V17C17 17.2833 17.096 17.521 17.288 17.713C17.48 17.905 17.7173 18.0007 18 18ZM11 20H21V15.275L22.1 14.725C22.5333 14.5083 22.875 14.204 23.125 13.812C23.375 13.42 23.5 12.9827 23.5 12.5C23.5 11.8 23.2627 11.2083 22.788 10.725C22.3133 10.2417 21.734 10 21.05 10C20.8667 10 20.7 10.0167 20.55 10.05C20.4 10.0833 20.2417 10.125 20.075 10.175L18.9 10.5L18.125 9.2C17.8917 8.81667 17.5873 8.52067 17.212 8.312C16.8367 8.10333 16.4327 7.99933 16 8C15.5673 8.00067 15.163 8.105 14.787 8.313C14.411 8.521 14.107 8.81667 13.875 9.2L13.1 10.5L11.9 10.175C11.7333 10.1417 11.5707 10.1043 11.412 10.063C11.2533 10.0217 11.0913 10.0007 10.926 10C10.242 10 9.66667 10.2417 9.2 10.725C8.73333 11.2083 8.5 11.8 8.5 12.5C8.5 12.9833 8.625 13.421 8.875 13.813C9.125 14.205 9.46667 14.509 9.9 14.725L11 15.275V20ZM9 22H11V24H21V22H23V24C23 24.55 22.8043 25.021 22.413 25.413C22.0217 25.805 21.5507 26.0007 21 26H11C10.45 26 9.97933 25.8043 9.588 25.413C9.19667 25.0217 9.00067 24.5507 9 24V22Z" fill="white"/>
</svg>
